:SAMPLES-PER-SECOND 30
:FRAME-RANGE 1-1390
:FULLY-SPECIFIED
:DEGREES
739
root  59.8019 37.6959 9.33616 172.117 -49.1215 -174.394
RightUpLeg  -83.9146 -15.7838 59.0314
RightLeg  132.679 5.94201 -5.41303
RightFoot  -32.4631 -0.0335652 1.00543
RightToes  6.35937e-011 1.2921e-014 -6.02303e-014
Spine  9.02833 -0.904051 6.75597
Spine1  -0.191175 1.66925 -3.45945
HEad  -5.87348 -8.16358 3.01774
LeftShoulder1  3.45563 -9.21257 -21.5039
LeftArm  39.0394 -19.8473 -69.8088
LeftForeArm  28.6375 -2.13126 -18.2028
LeftHand  -0.010268 6.68404 2.10755
RightShoulder  2.96923 6.81223 23.2623
RightArm  -5.94811 31.6739 90.7638
RightForeArm  127.472 -2.79961 4.01337
RightHand  1.26859 -18.8378 -11.3452
LeftUpLeg  -3.0877 -10.472 -10.2388
LeftLeg  37.3596 -0.337969 0.113159
LeftFoot  -18.3248 0.665615 9.07897
LeftToes  4.52251e-011 4.07896e-011 -5.42348e-012
740
root  59.4869 39.0261 9.05824 171.462 -50.727 -173.526
RightUpLeg  -84.7388 -14.6617 58.699
RightLeg  132.821 6.08911 -5.53032
RightFoot  -33.0247 0.00415479 1.19628
RightToes  6.35937e-011 1.2921e-014 -6.02303e-014
Spine  9.12467 -1.31827 6.14137
Spine1  -0.991465 1.14887 -3.36376
HEad  -6.48959 -7.44469 2.94307
LeftShoulder1  3.56687 -9.70711 -21.295
LeftArm  40.8299 -19.2091 -69.2553
LeftForeArm  25.8944 -2.65045 -18.272
LeftHand  -0.0192781 6.22513 1.74665
RightShoulder  2.86756 6.63836 22.7196
RightArm  -6.8672 31.9506 92.5113
RightForeArm  126.752 -2.62167 2.75958
RightHand  1.03388 -18.6399 -9.54665
LeftUpLeg  -2.28384 -11.8556 -9.02595
LeftLeg  34.5594 -2.74458 -1.65607
LeftFoot  -7.97091 -0.08426 4.49357
LeftToes  4.52251e-011 4.07896e-011 -5.42348e-012
741
root  59.1387 40.0107 8.87817 170.983 -51.8484 -173.02
RightUpLeg  -84.8397 -13.7029 59.0577
RightLeg  132.494 6.06512 -5.57389
RightFoot  -33.8589 0.149443 1.91018
RightToes  6.35937e-011 1.2921e-014 -6.02303e-014
Spine  9.50223 -1.54511 6.13809
Spine1  -1.12703 1.08217 -3.69945
HEad  -8.1483 -7.23455 1.72649
LeftShoulder1  3.66099 -10.1223 -21.1369
LeftArm  40.2819 -18.7808 -68.2943
LeftForeArm  25.5539 -2.41149 -18.3089
LeftHand  -0.0214573 5.90766 1.91572
RightShoulder  2.82107 6.62412 22.2648
RightArm  -7.14124 32.3578 93.9081
RightForeArm  125.833 -2.53845 2.02517
RightHand  0.964083 -18.2975 -9.18581
LeftUpLeg  -3.28176 -13.1128 -7.72869
LeftLeg  34.3898 -5.5552 -3.70657
LeftFoot  -0.78695 0.486828 -5.21857
LeftToes  4.52251e-011 4.07896e-011 -5.42348e-012
742
root  58.8809 40.6465 8.70364 170.298 -51.9381 -172.15
RightUpLeg  -83.8527 -12.7105 58.7743
RightLeg  131.251 3.8352 -3.4888
RightFoot  -32.765 0.329367 2.92088
RightToes  6.35937e-011 1.2921e-014 -6.02303e-014
Spine  10.2691 -1.45913 6.46763
Spine1  -0.800954 1.33179 -4.11061
HEad  -10.6092 -6.63058 0.287932
LeftShoulder1  3.65152 -10.19 -20.9155
LeftArm  38.0853 -18.9648 -67.3904
LeftForeArm  26.7748 -1.69475 -18.3067
LeftHand  -0.017407 5.95406 2.37068
RightShoulder  2.84022 6.71008 22.2097
RightArm  -6.13138 32.5682 94.6451
RightForeArm  124.687 -2.67909 2.5604
RightHand  1.05326 -18.2539 -9.98313
LeftUpLeg  -4.90138 -14.2348 -6.33637
LeftLeg  34.8297 -9.86164 -6.93967
LeftFoot  -3.82738 0.486486 -7.05403
LeftToes  4.52251e-011 4.07896e-011 -5.42348e-012
743
root  58.6731 40.9402 8.62873 171.178 -52.6993 -172.786
RightUpLeg  -82.9988 -12.2578 57.5345
RightLeg  129.625 1.42781 -1.0119
RightFoot  -33.0945 0.495238 3.7506
RightToes  6.35937e-011 1.2921e-014 -6.02303e-014
Spine  11.9491 -1.67847 5.89226
Spine1  -1.58288 1.25182 -4.67946
HEad  -12.8945 -5.79724 -0.729373
LeftShoulder1  3.6313 -10.1016 -20.9454
LeftArm  38.6767 -19.4914 -66.3896
LeftForeArm  26.4885 -1.88447 -18.3085
LeftHand  -0.0143079 6.09822 2.46484
RightShoulder  2.88536 6.92569 22.0449
RightArm  -5.82684 32.402 95.4699
RightForeArm  124.438 -2.70952 2.67577
RightHand  1.14628 -18.1828 -10.8403
LeftUpLeg  -7.46811 -16.2014 -6.43409
LeftLeg  33.8095 -8.80374 -5.93217
LeftFoot  -8.97708 0.199614 -7.06324
LeftToes  4.52251e-011 4.07896e-011 -5.42348e-012
744
root  58.4529 40.8403 8.60275 172.45 -53.7729 -173.507
RightUpLeg  -82.585 -12.4102 56.7237
RightLeg  128.279 -0.0329305 0.645324
RightFoot  -33.2306 0.576804 4.15322
RightToes  6.35937e-011 1.2921e-014 -6.02303e-014
Spine  13.0661 -1.90143 5.11498
Spine1  -1.62094 1.07385 -4.59457
HEad  -15.5662 -4.79945 -1.85629
LeftShoulder1  3.70051 -10.4433 -20.7623
LeftArm  33.1399 -20.3921 -65.7282
LeftForeArm  31.2883 -0.370403 -18.1282
LeftHand  -0.014506 6.23684 2.29441
RightShoulder  2.92576 7.10985 21.9285
RightArm  -5.29135 32.6753 96.2253
RightForeArm  124.786 -2.69894 2.70482
RightHand  1.24734 -18.5082 -11.4372
LeftUpLeg  -10.5864 -17.0584 -6.63802
LeftLeg  31.6988 -3.60349 -2.03116
LeftFoot  -14.0155 -0.0341064 -5.05559
LeftToes  4.52251e-011 4.07896e-011 -5.42348e-012
